# xmcd CD database file
#
# Track frame offsets:
#	150
#	8859
#	36811
#	53979
#	84848
#	90074
#	120952
#	135566
#	142384
#	167121
#	185496
#
# Disc length: 2794 seconds
#
# Revision: 0
# Processed by: cddbd v1.4PL0 Copyright (c) Steve Scherf et al.
# Submitted via: CDex 1.50
#
DISCID=850ae80b
DTITLE=Marcelo Del Paggio - Completa Luz
DYEAR=2003
DGENRE=Jazz
TTITLE0=Principios (Introduccion)
TTITLE1=Snakes
TTITLE2=Chank
TTITLE3=Silly Putty
TTITLE4=Analogias 1
TTITLE5=Partido Alto
TTITLE6=Free Man In Paris
TTITLE7=Analogias 2
TTITLE8=Mercy Mercy Mercy
TTITLE9=Big K
TTITLE10=Simulador
EXTD=YEAR: 2003
EXTT0=
EXTT1=
EXTT2=
EXTT3=
EXTT4=
EXTT5=
EXTT6=
EXTT7=
EXTT8=
EXTT9=
EXTT10=
PLAYORDER=
